<svg xmlns="http://www.w3.org/2000/svg" width="100" height="100" viewBox="0 0 40 40"><path fill="url(#pattern)" d="M20 6c.7 0 1 .3 1.1.5l13.8 25.2v.5c0 .4-.4.8-.8.8H5.8c-.4 0-.8-.4-.8-.8 0-.1 0-.2.1-.3l.2-.6L18.9 6.4c.1-.1.4-.4 1.1-.4m0-2c-1.8 0-2.7 1.2-2.8 1.4l-14 25.5c-.1.1 0 .2 0 .3-.1.3-.2.7-.2 1C3 33.7 4.3 35 5.8 35h28.3c1.6 0 2.8-1.3 2.8-2.8v-.4c0-.1-.1-.2-.1-.4 0-.1 0-.3-.1-.4L22.8 5.4c-.1-.2-1-1.4-2.8-1.4z"/><path fill-rule="evenodd" clip-rule="evenodd" fill="url(#pattern)" d="M20 13c-1.1 0-2 .8-2 2v7c0 1.2.9 2 2 2s2-.8 2-2v-7c0-1.2-.9-2-2-2zm0 13c-1.1 0-2 .9-2 2s.9 2 2 2 2-.9 2-2-.9-2-2-2z"/><defs><linearGradient id="gradient" x1="0%" y1="0%"><stop offset="0%" stop-color="#d93229"/><stop offset="25%" stop-color="#d62229"/><stop offset="50%" stop-color="#e97639"/><stop offset="75%" stop-color="#792042"/><stop offset="100%" stop-color="#ff3b30"/></linearGradient><pattern id="pattern" width="300%" height="100%" patternUnits="userSpaceOnUse"><rect width="150%" height="100%" fill="url(#gradient)"><animate attributeType="XML" attributeName="x" from="0" to="150%" dur="7s" repeatCount="indefinite"/></rect><rect x="-150%" width="150%" height="100%" fill="url(#gradient)"><animate attributeType="XML" attributeName="x" from="-150%" to="0" dur="7s" repeatCount="indefinite"/></rect></pattern></defs></svg>