<svg version="1.1" id="Layer_1" xmlns="http://www.w3.org/2000/svg" xmlns:xlink="http://www.w3.org/1999/xlink" x="0px" y="0px"
	 width="100px" height="100px" viewBox="0 0 40 40" enable-background="new 0 0 40 40" xml:space="preserve">
  <g>
	<path fill="url(#pattern)" d="M20,6c0.7,0,1,0.3,1.1,0.5l13.8,25.2c0,0.1,0,0.1,0,0.2l0,0l0,0c0,0,0,0,0,0.1l0,0.1l0,0.1l0,0
		c0,0.4-0.4,0.8-0.8,0.8H5.8C5.4,33,5,32.6,5,32.2c0-0.1,0-0.2,0.1-0.3l0.2-0.6l0,0L18.9,6.4C19,6.3,19.3,6,20,6 M20,4
		c-1.8,0-2.7,1.2-2.8,1.4L3.2,30.9c-0.1,0.1,0,0.2,0,0.3c-0.1,0.3-0.2,0.7-0.2,1C3,33.7,4.3,35,5.8,35c0.1,0,28.2,0,28.3,0
		c1.6,0,2.8-1.3,2.8-2.8c0-0.1,0-0.2,0-0.3c0-0.1,0-0.1,0-0.1c0-0.1-0.1-0.2-0.1-0.4c0-0.1,0-0.3-0.1-0.4L22.8,5.4
		C22.7,5.2,21.8,4,20,4L20,4z"/>
</g>
<g>
	<g>
		<path fill-rule="evenodd" clip-rule="evenodd" fill="url(#pattern)" d="M20,13c-1.1,0-2,0.8-2,2v7c0,1.2,0.9,2,2,2c1.1,0,2-0.8,2-2v-7
			C22,13.8,21.1,13,20,13z M20,26c-1.1,0-2,0.9-2,2s0.9,2,2,2c1.1,0,2-0.9,2-2S21.1,26,20,26z"/>
	</g>
</g>

  <defs>
    <!-- Da gradient -->
    <linearGradient id="gradient" x1="0%" y1="0%" x2="100%" y2="0">
      <stop offset="0%" style="stop-color:#d93229;"/>
      <stop offset="25%" style="stop-color:#D62229;"/>
      <stop offset="50%" style="stop-color:#E97639;"/>
      <stop offset="75%" style="stop-color:#792042;"/>
      <stop offset="100%" style="stop-color:#ff3b30;"/>
    </linearGradient>

	  <!-- Stitch 2 gradients together for seamless animation  -->
    <pattern id="pattern" x="0" y="0" width="300%" height="100%" patternUnits="userSpaceOnUse">
      <rect x="0" y="0" width="150%" height="100%" fill="url(#gradient)">
        <animate attributeType="XML"
                 attributeName="x"
                 from="0" to="150%"
                 dur="7s"
                 repeatCount="indefinite"/>
      </rect>
      <rect x="-150%" y="0" width="150%" height="100%" fill="url(#gradient)">
        <animate attributeType="XML"
                 attributeName="x"
                 from="-150%" to="0"
                 dur="7s"
                 repeatCount="indefinite"/>
      </rect>
    </pattern>
  </defs>
</svg>
